<?xml version="1.0" encoding="UTF-8"?>
<svg xmlns="http://www.w3.org/2000/svg" viewBox="0 0 900 520" width="900" height="520">
  <defs>
    <marker id="arrowSolid" markerWidth="8" markerHeight="6" refX="8" refY="3" orient="auto">
      <polygon points="0 0, 8 3, 0 6" fill="#374151"/>
    </marker>
    <marker id="arrowDash" markerWidth="8" markerHeight="6" refX="8" refY="3" orient="auto">
      <polygon points="0 0, 8 3, 0 6" fill="#9CA3AF"/>
    </marker>
  </defs>
  <rect width="900" height="520" fill="#FAFBFC" rx="6"/>
  <text x="450" y="22" font-family="Arial, sans-serif" font-size="13" font-weight="bold" fill="#1F2937" text-anchor="middle">Fig. 2: Case 1 — False VAT Invoicing via Goods-Invoice Separation</text>
  <rect x="45" y="45" width="130" height="34" rx="4" fill="#DBEAFE" stroke="#60A5FA" stroke-width="1.5"/>
  <text x="110" y="58" font-family="Arial, sans-serif" font-size="8.5" fill="#1E40AF" text-anchor="middle">Tax Policy</text>
  <text x="110" y="72" font-family="Arial, sans-serif" font-size="7.5" fill="#3B82F6" text-anchor="middle">(即征即退)</text>
  <rect x="205" y="45" width="130" height="34" rx="4" fill="#DBEAFE" stroke="#60A5FA" stroke-width="1.5"/>
  <text x="270" y="58" font-family="Arial, sans-serif" font-size="8.5" fill="#1E40AF" text-anchor="middle">C1 Invoice Issuer</text>
  <text x="270" y="72" font-family="Arial, sans-serif" font-size="7.5" fill="#3B82F6" text-anchor="middle">(Regeneration Co.)</text>
  <rect x="365" y="45" width="130" height="34" rx="4" fill="#DBEAFE" stroke="#60A5FA" stroke-width="1.5"/>
  <text x="430" y="58" font-family="Arial, sans-serif" font-size="8.5" fill="#1E40AF" text-anchor="middle">D1 Invoice Recipient</text>
  <text x="430" y="72" font-family="Arial, sans-serif" font-size="7.5" fill="#3B82F6" text-anchor="middle">(Shell Consulting)</text>
  <rect x="525" y="45" width="130" height="34" rx="4" fill="#DBEAFE" stroke="#60A5FA" stroke-width="1.5"/>
  <text x="590" y="58" font-family="Arial, sans-serif" font-size="8.5" fill="#1E40AF" text-anchor="middle">Personal</text>
  <text x="590" y="72" font-family="Arial, sans-serif" font-size="7.5" fill="#3B82F6" text-anchor="middle">Account Cluster</text>
  <rect x="685" y="45" width="130" height="34" rx="4" fill="#DBEAFE" stroke="#60A5FA" stroke-width="1.5"/>
  <text x="750" y="58" font-family="Arial, sans-serif" font-size="8.5" fill="#1E40AF" text-anchor="middle">Wang</text>
  <text x="750" y="72" font-family="Arial, sans-serif" font-size="7.5" fill="#3B82F6" text-anchor="middle">(Controller)</text>
  <line x1="110" y1="79" x2="110" y2="495" stroke="#D1D5DB" stroke-width="1" stroke-dasharray="5,4"/>
  <line x1="270" y1="79" x2="270" y2="495" stroke="#D1D5DB" stroke-width="1" stroke-dasharray="5,4"/>
  <line x1="430" y1="79" x2="430" y2="495" stroke="#D1D5DB" stroke-width="1" stroke-dasharray="5,4"/>
  <line x1="590" y1="79" x2="590" y2="495" stroke="#D1D5DB" stroke-width="1" stroke-dasharray="5,4"/>
  <line x1="750" y1="79" x2="750" y2="495" stroke="#D1D5DB" stroke-width="1" stroke-dasharray="5,4"/>
  <line x1="170" y1="95" x2="210" y2="95" stroke="#374151" stroke-width="1.2" marker-end="url(#arrowSolid)"/>
  <text x="190" y="89" font-family="Arial, sans-serif" font-size="8" fill="#374151" text-anchor="middle">1. VAT refund entitlement</text>
  <line x1="330" y1="125" x2="370" y2="125" stroke="#374151" stroke-width="1.2" marker-end="url(#arrowSolid)"/>
  <text x="350" y="119" font-family="Arial, sans-serif" font-size="8" fill="#374151" text-anchor="middle">2. Fabricated consulting contract</text>
  <line x1="330" y1="155" x2="370" y2="155" stroke="#374151" stroke-width="1.2" marker-end="url(#arrowSolid)"/>
  <text x="350" y="149" font-family="Arial, sans-serif" font-size="8" fill="#374151" text-anchor="middle">3. VAT special invoices issued</text>
  <line x1="370" y1="185" x2="330" y2="185" stroke="#9CA3AF" stroke-width="1.2" marker-end="url(#arrowDash)"/>
  <text x="350" y="179" font-family="Arial, sans-serif" font-size="8" fill="#9CA3AF" text-anchor="middle">4. Interbank payment (paper trail)</text>
  <line x1="330" y1="220" x2="530" y2="220" stroke="#374151" stroke-width="1.2" marker-end="url(#arrowSolid)"/>
  <text x="430" y="214" font-family="Arial, sans-serif" font-size="8" fill="#374151" text-anchor="middle">5. Deduct 5-6% fee, transfer 95%</text>
  <rect x="520" y="244" width="140" height="42" rx="3" fill="#ECFDF5" stroke="#6EE7B7" stroke-width="0.8" stroke-dasharray="3,2"/>
  <text x="590" y="258" font-family="Arial, sans-serif" font-size="7.5" fill="#065F46" text-anchor="middle">6. Multi-layer transfers</text>
  <text x="590" y="272" font-family="Arial, sans-serif" font-size="7" fill="#065F46" text-anchor="middle">(complex account transitions)</text>
  <line x1="650" y1="315" x2="690" y2="315" stroke="#374151" stroke-width="1.2" marker-end="url(#arrowSolid)"/>
  <text x="670" y="309" font-family="Arial, sans-serif" font-size="8" fill="#374151" text-anchor="middle">7. Funds return to controller</text>
  <line x1="370" y1="355" x2="170" y2="355" stroke="#9CA3AF" stroke-width="1.2" marker-end="url(#arrowDash)"/>
  <text x="270" y="349" font-family="Arial, sans-serif" font-size="8" fill="#9CA3AF" text-anchor="middle">8. Claim input VAT credit → prepare to vanish</text>
  <rect x="300" y="395" width="260" height="32" rx="3" fill="#FEF3C7" stroke="#FCD34D" stroke-width="1" opacity="0.85"/>
  <text x="430" y="408" font-family="Arial, sans-serif" font-size="7.5" fill="#92400E" text-anchor="middle">Circular Fund Flow: C1→D1→C1→</text>
  <text x="430" y="420" font-family="Arial, sans-serif" font-size="7.5" fill="#92400E" text-anchor="middle">Personal→Wang (closed loop)</text>
  <rect x="460" y="445" width="220" height="28" rx="3" fill="#FEF3C7" stroke="#FCD34D" stroke-width="1" opacity="0.85"/>
  <text x="570" y="457" font-family="Arial, sans-serif" font-size="7.5" fill="#92400E" text-anchor="middle">Shell: no premises, no employees,</text>
  <text x="570" y="469" font-family="Arial, sans-serif" font-size="7.5" fill="#92400E" text-anchor="middle">ready to disappear</text>
</svg>